<svg viewBox="-105 0 512 512" xmlns="http://www.w3.org/2000/svg"><path d="m302 87.328125v-30h-80.277344c-6.921875-32.707031-36-57.328125-70.722656-57.328125s-63.800781 24.621094-70.722656 57.328125h-80.277344v30h80.277344c2.980468 14.085937 10.070312 26.671875 19.953125 36.4375-55.59375 20.671875-95.3125 74.269531-95.3125 136.972656v156.238281h83.570312v32.511719c0 34.46875 28.042969 62.511719 62.511719 62.511719s62.511719-28.042969 62.511719-62.511719v-32.511719h83.570312v-156.238281c0-62.703125-39.71875-116.300781-95.3125-136.972656 9.882813-9.765625 16.972657-22.351563 19.953125-36.4375zm-151-57.328125c23.320312 0 42.296875 18.988281 42.296875 42.328125 0 23.34375-18.976563 42.332031-42.296875 42.332031s-42.296875-18.988281-42.296875-42.332031c0-23.339844 18.976563-42.328125 42.296875-42.328125zm32.511719 419.488281c0 17.925781-14.585938 32.511719-32.511719 32.511719s-32.511719-14.585938-32.511719-32.511719v-32.511719h65.023438zm30.007812-62.511719h-125.039062v-22.507812c0-34.472656 28.046875-62.519531 62.519531-62.519531s62.519531 28.046875 62.519531 62.519531zm53.5625-126.238281v126.238281h-23.5625v-22.507812c0-51.015625-41.503906-92.519531-92.519531-92.519531s-92.519531 41.503906-92.519531 92.519531v22.507812h-23.5625v-126.238281c0-64.003906 52.074219-116.078125 116.082031-116.078125s116.082031 52.074219 116.082031 116.078125zm0 0"/><path d="m100.25 243.121094 21.09375 21.332031c7.972656-7.886719 18.507812-12.226563 29.65625-12.226563s21.683594 4.339844 29.65625 12.226563l21.09375-21.332031c-13.625-13.476563-31.648438-20.894532-50.75-20.894532s-37.125 7.417969-50.75 20.894532zm0 0"/><path d="m151 174.730469c-31.46875 0-61.769531 12.550781-84.121094 34.644531l21.09375 21.328125c16.757813-16.5625 39.460938-25.972656 63.027344-25.972656s46.269531 9.410156 63.027344 25.972656l21.09375-21.328125c-22.351563-22.09375-52.652344-34.644531-84.121094-34.644531zm0 0"/></svg>