<svg viewBox="0 -51 512 512" xmlns="http://www.w3.org/2000/svg"><path d="m0 0v160.214844l51.105469 51.105468c3.355469 110.125 93.972656 198.679688 204.894531 198.679688s201.539062-88.554688 204.894531-198.679688l51.105469-51.105468v-160.214844zm256 380c-91.441406 0-166.730469-70.5-174.363281-160h348.726562c-7.632812 89.5-82.921875 160-174.363281 160zm226-232.214844-42.214844 42.214844h-367.570312l-42.214844-42.214844v-117.785156h452zm0 0"/><path d="m256 359c32.53125 0 59-26.46875 59-59s-26.46875-59-59-59-59 26.46875-59 59 26.46875 59 59 59zm0-88c15.992188 0 29 13.007812 29 29s-13.007812 29-29 29-29-13.007812-29-29 13.007812-29 29-29zm0 0"/><path d="m366 69.5h-220v81h220zm-30 51h-160v-21h160zm0 0"/></svg>