<svg viewBox="-86 0 512 512.00024" xmlns="http://www.w3.org/2000/svg"><path d="m184.511719 240.667969c0-21.394531 0-84.492188 0-110.085938 109.535156-14.171875 101.351562-130.402343 101.386719-130.503906-5.824219 1.082031-59.367188-8.066406-101.386719 38.476563v-24.164063h-30.023438v87.933594c-41.988281-46.511719-95.65625-37.414063-101.386719-38.476563.035157.097656-8.15625 116.332032 101.386719 130.503906v46.316407h-154.488281l39.941406 271.332031h259.117188l39.941406-271.332031zm69.761719-208.949219c-6.714844 34.347656-33.828126 61.472656-68.15625 68.191406 6.710937-34.347656 33.824218-61.472656 68.15625-68.191406zm-169.5625 63.765625c34.34375 6.710937 61.46875 33.851563 68.175781 68.210937-34.335938-6.65625-61.523438-33.84375-68.175781-68.210937zm188.421874 386.480469h-207.265624l-31.097657-211.261719h269.460938zm0 0"/><path d="m118.710938 399.828125 21.109374 21.355469c7.980469-7.894532 18.519532-12.242188 29.679688-12.242188s21.699219 4.347656 29.679688 12.242188l21.109374-21.355469c-13.636718-13.492187-31.671874-20.925781-50.789062-20.925781s-37.152344 7.429687-50.789062 20.925781zm0 0"/><path d="m169.5 331.351562c-31.492188 0-61.816406 12.566407-84.1875 34.683594l21.109375 21.359375c16.773437-16.585937 39.492187-26.007812 63.078125-26.007812s46.304688 9.421875 63.078125 26.007812l21.109375-21.359375c-22.371094-22.117187-52.695312-34.683594-84.1875-34.683594zm0 0"/></svg>